<svg xmlns="http://www.w3.org/2000/svg" data-name="Layer 2" viewBox="0 0 3000 3000"><defs><clipPath id="a"><rect width="2866.93" height="2859.02" x="66.54" y="70.49" fill="none"></rect></clipPath></defs><g clip-path="url(#a)" fill="#167ffc" class="color000000 svgShape"><path fill="#fe9526" d="M2013.72,974.46a70.89,70.89,0,1,1,31.73-134.34h0a70.89,70.89,0,0,1-31.73,134.34Zm.18-129.76a59.11,59.11,0,0,0-18.75,3.07,58.85,58.85,0,1,0,44.93,3.13h0A58.66,58.66,0,0,0,2013.9,844.7Z" class="colorfcc14a svgShape"></path><path fill="#e8a35b" d="M154.5 2206a73.19 73.19 0 01-7.65-.41 70.89 70.89 0 1178.08-62.89h0A71 71 0 01154.5 2206zm-.17-129.75a58.87 58.87 0 106.41.34A60 60 0 00154.33 2076.29zm64.61 65.8h0zM1379.56 1511.35a71 71 0 1120.72-3.11A70.47 70.47 0 011379.56 1511.35zm.16-129.8a59.12 59.12 0 00-17.2 2.57 58.54 58.54 0 1017.2-2.57zM1782.51 2929.51q-1.56 0-3.12-.06a71.2 71.2 0 113.12.06zm-.1-129.74a59.14 59.14 0 102.56.06C1784.11 2799.79 1783.26 2799.77 1782.41 2799.77z" class="colore85f5b svgShape"></path><path fill="#53d86a" d="M2227.17,2519a71.09,71.09,0,1,1,12.26-1.06A71.66,71.66,0,0,1,2227.17,2519Zm.23-129.73a58.82,58.82,0,0,0-34,106.93h0a58.85,58.85,0,1,0,34-106.93Z" class="color37bc9b svgShape"></path><path fill="#e2b789" d="M2838.57,507.46q-3.43,0-6.89-.33a70.89,70.89,0,1,1,61.45-115.68h0a70.9,70.9,0,0,1-54.56,116Zm-.18-129.72a58.82,58.82,0,1,0,45.45,21.37h0A58.79,58.79,0,0,0,2838.39,377.74Z" class="colore289a9 svgShape"></path><path fill="#53d86a" d="M820.75,2766.63a71.93,71.93,0,0,1-8.39-.5h0a70.47,70.47,0,1,1,8.39.5Zm-7-12.46a58.84,58.84,0,1,0-51.6-65.3,58.42,58.42,0,0,0,51.6,65.3Z" class="color37bc9b svgShape"></path><path fill="#1b1c61" d="M1109.77,1118.19h-.39a70.89,70.89,0,0,1,.37-141.78h.39a70.89,70.89,0,0,1-.37,141.78Zm0-129.74a58.49,58.49,0,1,0,.33,0Z" class="color1b4e61 svgShape"></path><path fill="#e8a35b" d="M2504.34 1944.13a51.34 51.34 0 01-46.51-72.92h0a51.34 51.34 0 1146.51 72.92zm-35.58-67.85a39.28 39.28 0 1022.12-20.38 39.34 39.34 0 00-22.12 20.38zM502.22 570.82A51.34 51.34 0 11553.31 514h0a51.41 51.41 0 01-51.09 56.81zm.12-90.65a40.68 40.68 0 00-4.26.23 39.29 39.29 0 1043.25 34.89h0a39.31 39.31 0 00-39-35.12zM2555.32 1035.52a51.43 51.43 0 119.49-.89A51.42 51.42 0 012555.32 1035.52zm0-90.65a39.3 39.3 0 1038.61 32A39.1 39.1 0 002555.35 944.87zM1398.63 1987.5a52.06 52.06 0 01-5.69-.31 51.25 51.25 0 115.69.31zm-.17-90.64a39.33 39.33 0 00-39 35 39.3 39.3 0 1043.34-34.78A39.77 39.77 0 001398.46 1896.86zM2259.19 2959.45a6 6 0 01-5.49-3.55l-34.78-77.1a6 6 0 013-8l77.1-34.78a6 6 0 018 3l34.78 77.1a6 6 0 01-3 8l-77.09 34.77A5.94 5.94 0 012259.19 2959.45zm-26.82-80.11l29.83 66.12 66.12-29.83-29.83-66.12zM2032.19 464.72a6 6 0 01-3.38-1L1958.92 416a6 6 0 01-1.58-8.37L2005 337.78a6 6 0 018.37-1.59l69.88 47.65a6 6 0 011.58 8.37l-47.65 69.88A6 6 0 012032.19 464.72zm-61.51-55.25l59.94 40.86 40.86-59.93-59.93-40.86zM2823.15 1449a6 6 0 01-5.88-4.74l-18-82.64a6 6 0 014.6-7.17l82.65-18a6 6 0 017.16 4.6l18 82.64a6 6 0 01-4.61 7.17l-82.64 18A5.52 5.52 0 012823.15 1449zm-10.83-84.06l15.43 70.87 70.88-15.43-15.44-70.87zM2025 1937.06a6 6 0 01-4.94-2.57l-48.44-69.34a6 6 0 011.49-8.39l69.34-48.43a6 6 0 018.39 1.49l48.43 69.34a6 6 0 01-1.49 8.39L2028.46 1936A6 6 0 012025 1937.06zm-40-73.87l41.53 59.46 59.47-41.53-41.54-59.47z" class="colore85f5b svgShape"></path><path fill="#1b1c61" d="M1352.53 2834.36a6.1 6.1 0 01-2-.33l-80-27.44a6 6 0 01-3.74-7.66l27.45-80a6 6 0 017.65-3.74l80 27.44a6 6 0 013.74 7.65l-27.44 80A6 6 0 011352.53 2834.36zm-72.35-37.22l68.61 23.54 23.54-68.61-68.61-23.54zM2327.21 1509.06a6 6 0 01-5.92-5l-15-83.24a6 6 0 014.86-7l83.24-15a6 6 0 017 4.86l15 83.23a6 6 0 01-4.86 7l-83.24 15A6.56 6.56 0 012327.21 1509.06zm-8-84.41l12.87 71.39 71.38-12.88-12.86-71.38z" class="color1b4e61 svgShape"></path><path fill="#fe9526" d="M846.1,346.64a6,6,0,0,1-4-1.48l-63.79-55.54a6,6,0,0,1-.59-8.5l55.54-63.79a6,6,0,0,1,8.49-.59l63.8,55.54a6,6,0,0,1,.59,8.5l-55.54,63.79A6,6,0,0,1,846.1,346.64Zm-55.29-62.15,54.71,47.63,47.63-54.71-54.71-47.63Z" class="colorfcc14a svgShape"></path><path fill="#f1fff3" d="M2672.12,186.59a6,6,0,0,1-1.61-.22L2589,163.85a6,6,0,0,1-4.2-7.41l22.52-81.53a6,6,0,0,1,7.41-4.2l81.53,22.52a6,6,0,0,1,4.2,7.41l-22.52,81.53A6,6,0,0,1,2672.12,186.59ZM2598,153.84l69.91,19.31,19.32-69.91-69.92-19.32Z" class="colorfffef1 svgShape"></path><path fill="#1b1c61" d="M2927.44,2865.71h0l-207.34-.55a6,6,0,0,1,0-12h0l207.33.55a6,6,0,0,1,0,12.05Z" class="color1b4e61 svgShape"></path><path fill="#e2b789" d="M833.59,2087.54a6,6,0,0,1-5-2.7l-114.33-173a6,6,0,1,1,10-6.64l114.33,173a6,6,0,0,1-1.71,8.34A5.94,5.94,0,0,1,833.59,2087.54Z" class="colore289a9 svgShape"></path><path fill="#1b1c61" d="M2863.44 1003.82a7.31 7.31 0 01-.8-.05 6 6 0 01-5.18-6.77l27.32-205.52a6 6 0 1111.94 1.58L2869.4 998.59A6 6 0 012863.44 1003.82zM849.92 797.19a6 6 0 01-2.32-11.58L1039 705.8a6 6 0 114.64 11.12l-191.36 79.8A6 6 0 01849.92 797.19z" class="color1b4e61 svgShape"></path><path fill="#fe9526" d="M1485.2,881.24a6,6,0,0,1-.37-12l50.42-3.13,1.82-50.48a6,6,0,0,1,5.65-5.79l50.41-3.12,1.82-50.48a6,6,0,0,1,5.65-5.79l55.86-3.46a6,6,0,0,1,.75,12l-50.42,3.12L1605,812.58a6,6,0,0,1-5.64,5.79l-50.42,3.13L1547.09,872a6,6,0,0,1-5.65,5.79l-55.87,3.46Z" class="colorfcc14a svgShape"></path><path fill="#e8a35b" d="M1852.54,1479.79a6,6,0,0,1-1.82-11.77l48.16-15.24-10.46-49.41a6,6,0,0,1,4.07-7l48.16-15.24-10.46-49.42a6,6,0,0,1,4.08-7l53.36-16.89a6,6,0,0,1,3.63,11.49l-48.16,15.24,10.46,49.42a6,6,0,0,1-4.07,7l-48.16,15.23,10.46,49.42a6,6,0,0,1-4.07,7l-53.36,16.88A6.12,6.12,0,0,1,1852.54,1479.79Z" class="colore85f5b svgShape"></path><path fill="#595bd4" d="M702.28,1539.68a6,6,0,0,1-1.55-.21L646.65,1525a6,6,0,0,1,3.11-11.64l48.8,13,17.76-47.29a6,6,0,0,1,7.2-3.7l48.79,13,17.75-47.29a6,6,0,0,1,7.2-3.7L851.33,1452a6,6,0,0,1-3.11,11.64l-48.8-13-17.75,47.28a6,6,0,0,1-7.2,3.7l-48.79-13-17.76,47.28A6,6,0,0,1,702.28,1539.68Z" class="color46acc3 svgShape"></path><path fill="#e2b789" d="M364.7,2587.22a6.14,6.14,0,0,1-2.09-.37l-52.49-19.43a6,6,0,1,1,4.18-11.29l47.37,17.53,22.08-45.43a6,6,0,0,1,7.51-3l47.37,17.53,22.07-45.43a6,6,0,0,1,7.51-3l52.49,19.43a6,6,0,1,1-4.18,11.3l-47.37-17.53-22.07,45.43a6,6,0,0,1-7.51,3L392.2,2538.4l-22.08,45.43A6,6,0,0,1,364.7,2587.22Z" class="colore289a9 svgShape"></path><path fill="#595bd4" d="M372.16,1139.87a6.65,6.65,0,0,1-.89-.06,6,6,0,0,1-4.71-3.75l-33.82-85.7a6,6,0,0,1,6.48-8.17l91.14,13.56a6,6,0,0,1,3.83,9.71l-57.32,72.14A6,6,0,0,1,372.16,1139.87Zm-24.39-84.23,26.16,66.3,44.34-55.81Z" class="color46acc3 svgShape"></path><path fill="#1b1c61" d="M346.51,1767.58a6,6,0,0,1-5-2.62l-52.11-76a6,6,0,0,1,4.51-9.41l91.86-7.13a6,6,0,0,1,5.9,8.61l-39.77,83.11a6,6,0,0,1-5,3.41Zm-41.23-76.82,40.3,58.78,30.76-64.29Z" class="color1b4e61 svgShape"></path><path fill="#53d86a" d="M1661.18,2379.52a6,6,0,0,1-6-5.69l-5.13-92a6,6,0,0,1,8.73-5.71l82.23,41.55a6,6,0,0,1,.58,10.42l-77.1,50.44A6,6,0,0,1,1661.18,2379.52Zm1.46-87.94,4,71.16,59.65-39Z" class="color37bc9b svgShape"></path><path fill="#fe9526" d="M2693.41,2340.63a6,6,0,0,1-4.1-1.61l-67.48-62.74a6,6,0,0,1,2.33-10.17l88.07-27.07a6,6,0,0,1,7.64,7.1L2699.28,2336a6,6,0,0,1-5.87,4.68Zm-55.74-66.07,52.2,48.53,15.93-69.47Z" class="colorfcc14a svgShape"></path><path fill="#53d86a" d="M2393.74,598.27a6.39,6.39,0,0,1-1.3-.14,6.05,6.05,0,0,1-4.45-4.07l-38.24-120.78a6,6,0,0,1,7-7.7l123.72,27.27a6,6,0,0,1,3.15,9.95l-85.48,93.51A6,6,0,0,1,2393.74,598.27Zm-29.36-118.68,31.95,100.89,71.4-78.11Z" class="color37bc9b svgShape"></path><path fill="#e8a35b" d="M1356.88 424.82a6.06 6.06 0 01-5.83-4.53l-31.51-122.71a6 6 0 017.45-7.3l122 34.07a6 6 0 012.59 10.1L1361.1 423.1A6.06 6.06 0 011356.88 424.82zM1333.8 304.69l26.32 102.5 75.61-74zM1067.91 2388.05a6 6 0 01-6-6.72l14.73-125.83a6 6 0 019.58-4.13L1187.84 2327a6 6 0 01-1.21 10.36l-116.34 50.16A6 6 0 011067.91 2388.05zm19.49-120.79l-12.3 105.11 97.18-41.9zM2259.19 100.43a6 6 0 01-5.49-3.55l-34.78-77.1a6 6 0 013-8L2299-23a6 6 0 018 3l34.78 77.1a6 6 0 01-3 8l-77.09 34.78A6.1 6.1 0 012259.19 100.43zm-26.82-80.12l29.83 66.13 66.12-29.83L2298.49-9.51z" class="colore85f5b svgShape"></path></g></svg>